<svg xmlns="http://www.w3.org/2000/svg" viewBox="0 0 100 100">
  <defs>
    <clipPath id="l"><rect x="0" y="0" width="50" height="100"/></clipPath>
  </defs>
  <path d="M50 92 C23 71 6 51 6 32 C6 17 18 6 31 6 C39 6 47 10.5 50 19 C53 10.5 61 6 69 6 C82 6 94 17 94 32 C94 51 77 71 50 92 Z" fill="#4193C9"/>
  <path d="M50 92 C23 71 6 51 6 32 C6 17 18 6 31 6 C39 6 47 10.5 50 19 C53 10.5 61 6 69 6 C82 6 94 17 94 32 C94 51 77 71 50 92 Z" fill="#E8752B" clip-path="url(#l)"/>
  <path d="M50 26 L54 42 L70 46 L54 50 L50 66 L46 50 L30 46 L46 42 Z" fill="#FFFFFF"/>
</svg>
